<?xml version="1.0" encoding="iso-8859-1"?>
<!-- Generator: Adobe Illustrator 16.0.0, SVG Export Plug-In . SVG Version: 6.00 Build 0)  -->
<!DOCTYPE svg PUBLIC "-//W3C//DTD SVG 1.1//EN" "http://www.w3.org/Graphics/SVG/1.1/DTD/svg11.dtd">
<svg version="1.1" id="Capa_1" xmlns="http://www.w3.org/2000/svg" xmlns:xlink="http://www.w3.org/1999/xlink" x="0px" y="0px"
	 width="93.884px" height="93.883px" viewBox="0 0 93.884 93.883" style="enable-background:new 0 0 93.884 93.883;"
	 xml:space="preserve">
<g>
	<path d="M92.295,84.629L56.69,49.105c8.553-12.164,7.424-29.111-3.443-39.98C41.085-3.04,21.289-3.04,9.124,9.125
		c-12.165,12.164-12.165,31.958,0,44.123c10.868,10.871,27.814,11.996,39.979,3.44l35.523,35.607c2.118,2.116,5.548,2.116,7.667,0
		C94.414,90.176,94.414,86.748,92.295,84.629z M30.971,52.697c-12.018,0-21.762-9.741-21.762-21.758
		c0-12.02,9.744-21.762,21.762-21.762c12.014,0,21.758,9.742,21.758,21.762C52.729,42.956,42.985,52.697,30.971,52.697z"/>
</g>
<g>
</g>
<g>
</g>
<g>
</g>
<g>
</g>
<g>
</g>
<g>
</g>
<g>
</g>
<g>
</g>
<g>
</g>
<g>
</g>
<g>
</g>
<g>
</g>
<g>
</g>
<g>
</g>
<g>
</g>
</svg>
